<svg xmlns="http://www.w3.org/2000/svg" xmlns:xlink="http://www.w3.org/1999/xlink" width="512" height="512" viewBox="0 0 512 512"><defs><radialGradient id="a" cx="0.5" cy="0.5" r="0.561" gradientUnits="objectBoundingBox"><stop offset="0" stop-color="#fff" stop-opacity="0.192"/><stop offset="0.472" stop-color="#7a7a7a" stop-opacity="0.173"/><stop offset="1" stop-opacity="0.204"/></radialGradient></defs><rect width="512" height="512" rx="119.467" fill="#242635"/><rect width="512" height="512" rx="119.467" fill="url(#a)"/><path d="M0,170.667A170.667,170.667,0,0,1,170.667,341.333,170.667,170.667,0,0,1,0,170.667ZM273.066,72.534A136.533,136.533,0,0,1,136.534,209.066,136.533,136.533,0,0,1,273.066,72.534ZM34.133,38.4a102.4,102.4,0,0,1,102.4,102.4A102.4,102.4,0,0,1,34.133,38.4ZM196.267,0A68.267,68.267,0,0,1,128,68.267,68.267,68.267,0,0,1,196.267,0Z" transform="translate(119.467 85.333)" fill="#65d36e"/></svg>